<svg id="Laag_1" data-name="Laag 1" xmlns="http://www.w3.org/2000/svg" viewBox="0 0 99.96 96.23"><defs><style>.cls-1{fill:#f06c21;}.cls-2{fill:#c6c2bd;}.cls-3{fill:#f1822e;}.cls-4{fill:#e05801;}.cls-5{fill:#635e55;}.cls-6{fill:#868178;}</style></defs><title>square</title><polygon class="cls-1" points="50.02 38.49 33.35 28.87 50.02 19.25 50.02 38.49"/><polygon class="cls-1" points="33.35 28.87 50.02 19.25 33.35 9.62 33.35 28.87"/><polygon class="cls-2" points="50.02 19.25 33.35 9.62 50.02 0 50.02 19.25"/><polygon class="cls-3" points="50.02 19.25 66.68 9.62 50.02 0 50.02 19.25"/><polygon class="cls-2" points="50.02 57.75 33.36 48.13 50.02 38.51 50.02 57.75"/><polygon class="cls-4" points="50.02 57.75 66.69 48.13 50.02 38.51 50.02 57.75"/><polygon class="cls-1" points="33.36 48.13 50.02 38.51 33.36 28.88 33.36 48.13"/><polygon class="cls-1" points="50 76.97 33.34 67.35 50 57.73 50 76.97"/><polygon class="cls-1" points="33.34 67.35 50 57.73 33.34 48.1 33.34 67.35"/><polygon class="cls-5" points="50.03 38.47 33.36 28.85 50.03 19.23 50.03 38.47"/><polygon class="cls-5" points="33.36 48.09 50.03 38.47 33.36 28.85 33.36 48.09"/><polygon class="cls-2" points="33.36 28.85 16.7 19.23 33.36 9.6 33.36 28.85"/><polygon class="cls-2" points="33.36 28.85 50.03 19.23 33.36 9.6 33.36 28.85"/><polygon class="cls-5" points="50 76.98 33.34 67.35 50 57.73 50 76.98"/><polygon class="cls-5" points="33.34 86.6 50 76.98 33.34 67.35 33.34 86.6"/><polygon class="cls-2" points="33.34 67.35 50 57.73 33.34 48.11 33.34 67.35"/><polygon class="cls-5" points="33.35 48.11 16.68 38.49 33.35 28.87 33.35 48.11"/><polygon class="cls-6" points="16.68 57.73 0.02 48.11 16.68 38.49 16.68 57.73"/><polygon class="cls-5" points="16.68 57.73 33.35 48.11 16.68 38.49 16.68 57.73"/><polygon class="cls-6" points="0.02 48.11 16.68 38.49 0.02 28.87 0.02 48.11"/><polygon class="cls-2" points="16.68 38.49 0.02 28.87 16.68 19.25 16.68 38.49"/><polygon class="cls-2" points="16.68 38.49 33.35 28.87 16.68 19.25 16.68 38.49"/><polygon class="cls-4" points="99.97 48.04 83.3 38.42 99.97 28.8 99.97 48.04"/><polygon class="cls-1" points="83.3 57.67 66.63 48.04 83.3 38.42 83.3 57.67"/><polygon class="cls-4" points="83.3 57.67 99.97 48.04 83.3 38.42 83.3 57.67"/><polygon class="cls-1" points="66.63 48.04 83.3 38.42 66.63 28.8 66.63 48.04"/><polygon class="cls-3" points="83.3 38.42 66.63 28.8 83.3 19.18 83.3 38.42"/><polygon class="cls-3" points="83.3 38.42 99.97 28.8 83.3 19.18 83.3 38.42"/><polygon class="cls-4" points="99.95 67.31 83.28 57.68 99.95 48.06 99.95 67.31"/><polygon class="cls-1" points="83.28 76.93 66.61 67.31 83.28 57.68 83.28 76.93"/><polygon class="cls-4" points="83.28 76.93 99.95 67.31 83.28 57.68 83.28 76.93"/><polygon class="cls-1" points="66.61 67.31 83.28 57.68 66.61 48.06 66.61 67.31"/><polygon class="cls-1" points="66.69 48.09 50.03 38.47 66.69 28.85 66.69 48.09"/><polygon class="cls-1" points="50.03 38.47 66.69 28.85 50.03 19.23 50.03 38.47"/><polygon class="cls-3" points="66.69 28.85 50.03 19.23 66.69 9.6 66.69 28.85"/><polygon class="cls-3" points="66.69 28.85 83.36 19.23 66.69 9.6 66.69 28.85"/><polygon class="cls-4" points="99.95 86.53 83.28 76.9 99.95 67.28 99.95 86.53"/><polygon class="cls-1" points="83.28 96.15 66.62 86.53 83.28 76.9 83.28 96.15"/><polygon class="cls-4" points="83.28 96.15 99.95 86.53 83.28 76.9 83.28 96.15"/><polygon class="cls-1" points="66.62 86.53 83.28 76.9 66.62 67.28 66.62 86.53"/><polygon class="cls-1" points="66.68 86.57 50.02 76.95 66.68 67.33 66.68 86.57"/><polygon class="cls-1" points="50.02 76.95 66.68 67.33 50.02 57.71 50.02 76.95"/><polygon class="cls-3" points="66.68 67.33 50.02 57.71 66.68 48.08 66.68 67.33"/><polygon class="cls-5" points="33.33 67.38 16.66 57.76 33.33 48.14 33.33 67.38"/><polygon class="cls-6" points="16.66 77.01 0 67.38 16.66 57.76 16.66 77.01"/><polygon class="cls-5" points="16.66 77.01 33.33 67.38 16.66 57.76 16.66 77.01"/><polygon class="cls-6" points="0 67.38 16.66 57.76 0 48.14 0 67.38"/><polygon class="cls-5" points="33.33 86.61 16.66 76.99 33.33 67.37 33.33 86.61"/><polygon class="cls-6" points="16.66 96.23 0 86.61 16.66 76.99 16.66 96.23"/><polygon class="cls-5" points="16.66 96.23 33.33 86.61 16.66 76.99 16.66 96.23"/><polygon class="cls-6" points="0 86.61 16.66 76.99 0 67.37 0 86.61"/></svg>